<svg width="158" height="68" viewBox="0 0 158 68" fill="none" xmlns="http://www.w3.org/2000/svg">
<path d="M148.688 67.7608H9.2517C4.1302 67.7608 0 63.6243 0 58.4952V20.6055H157.774V58.4952C157.774 63.6243 153.644 67.7608 148.688 67.7608Z" fill="#0A172B"/>
<path d="M148.688 0.75H9.2517C4.1302 0.75 0 4.8864 0 10.0156V20.6049H157.774V10.0156C157.774 4.8864 153.644 0.75 148.688 0.75Z" fill="#1A2D4A"/>
<path d="M18.5257 10.3468C18.5257 12.0014 17.0389 13.4905 15.3868 13.4905C13.7347 13.4905 12.2478 12.0014 12.2478 10.3468C12.2478 8.69223 13.7347 7.20312 15.3868 7.20312C17.0389 7.20312 18.5257 8.69223 18.5257 10.3468Z" fill="#FFC3D0"/>
<path d="M32.238 10.3468C32.238 12.0014 30.7511 13.4905 29.099 13.4905C27.447 13.4905 25.9601 12.0014 25.9601 10.3468C25.9601 8.69223 27.447 7.20312 29.099 7.20312C30.7511 7.20312 32.238 8.69223 32.238 10.3468Z" fill="#F5D79B"/>
<path d="M45.7851 10.3468C45.7851 12.0014 44.2983 13.4905 42.6462 13.4905C40.9941 13.4905 39.5072 12.0014 39.5072 10.3468C39.5072 8.69223 40.9941 7.20312 42.6462 7.20312C44.4635 7.20312 45.7851 8.69223 45.7851 10.3468Z" fill="#6AEBE7"/>
<path d="M46.433 36.3758C46.433 36.3291 46.447 36.2918 46.475 36.2638C46.5124 36.2265 46.5544 36.2078 46.601 36.2078H47.889C47.9357 36.2078 47.973 36.2265 48.001 36.2638C48.0384 36.2918 48.057 36.3291 48.057 36.3758V45.8398C48.057 45.8865 48.0384 45.9285 48.001 45.9658C47.973 45.9938 47.9357 46.0078 47.889 46.0078H46.531C46.447 46.0078 46.3817 45.9658 46.335 45.8818L43.283 39.6098C43.2644 39.5818 43.2457 39.5725 43.227 39.5818C43.2084 39.5818 43.199 39.6005 43.199 39.6378L43.213 45.8398C43.213 45.8865 43.1944 45.9285 43.157 45.9658C43.129 45.9938 43.0917 46.0078 43.045 46.0078H41.757C41.7104 46.0078 41.6684 45.9938 41.631 45.9658C41.603 45.9285 41.589 45.8865 41.589 45.8398V36.3758C41.589 36.3291 41.603 36.2918 41.631 36.2638C41.6684 36.2265 41.7104 36.2078 41.757 36.2078H43.101C43.1944 36.2078 43.2597 36.2498 43.297 36.3338L46.363 42.6338C46.3817 42.6618 46.4004 42.6758 46.419 42.6758C46.4377 42.6665 46.447 42.6431 46.447 42.6058L46.433 36.3758ZM52.7315 46.1338C52.1155 46.1338 51.5695 46.0078 51.0935 45.7558C50.6268 45.5038 50.2628 45.1491 50.0015 44.6918C49.7495 44.2251 49.6235 43.6885 49.6235 43.0818V39.1338C49.6235 38.5365 49.7495 38.0091 50.0015 37.5518C50.2628 37.0851 50.6268 36.7258 51.0935 36.4738C51.5695 36.2218 52.1155 36.0958 52.7315 36.0958C53.3568 36.0958 53.9028 36.2218 54.3695 36.4738C54.8455 36.7258 55.2142 37.0851 55.4755 37.5518C55.7368 38.0091 55.8675 38.5365 55.8675 39.1338V43.0818C55.8675 43.6885 55.7368 44.2251 55.4755 44.6918C55.2142 45.1491 54.8455 45.5038 54.3695 45.7558C53.9028 46.0078 53.3568 46.1338 52.7315 46.1338ZM52.7315 44.7338C53.1888 44.7338 53.5528 44.5891 53.8235 44.2998C54.1035 44.0011 54.2435 43.6185 54.2435 43.1518V39.0918C54.2435 38.6158 54.1035 38.2331 53.8235 37.9438C53.5528 37.6451 53.1888 37.4958 52.7315 37.4958C52.2835 37.4958 51.9242 37.6451 51.6535 37.9438C51.3828 38.2331 51.2475 38.6158 51.2475 39.0918V43.1518C51.2475 43.6185 51.3828 44.0011 51.6535 44.2998C51.9242 44.5891 52.2835 44.7338 52.7315 44.7338ZM63.5975 36.1938C64.1388 36.1938 64.6148 36.3151 65.0255 36.5578C65.4455 36.8005 65.7675 37.1458 65.9915 37.5938C66.2248 38.0325 66.3415 38.5365 66.3415 39.1058C66.3415 39.6658 66.2248 40.1605 65.9915 40.5898C65.7675 41.0191 65.4455 41.3551 65.0255 41.5978C64.6148 41.8311 64.1435 41.9478 63.6115 41.9478H61.8895C61.8428 41.9478 61.8195 41.9711 61.8195 42.0178V45.8398C61.8195 45.8865 61.8008 45.9285 61.7635 45.9658C61.7355 45.9938 61.6981 46.0078 61.6515 46.0078H60.3635C60.3168 46.0078 60.2748 45.9938 60.2375 45.9658C60.2095 45.9285 60.1955 45.8865 60.1955 45.8398V36.3618C60.1955 36.3151 60.2095 36.2778 60.2375 36.2498C60.2748 36.2125 60.3168 36.1938 60.3635 36.1938H63.5975ZM63.3595 40.6458C63.7701 40.6458 64.0968 40.5105 64.3395 40.2398C64.5915 39.9598 64.7175 39.5911 64.7175 39.1338C64.7175 38.6671 64.5915 38.2938 64.3395 38.0138C64.0968 37.7338 63.7701 37.5938 63.3595 37.5938H61.8895C61.8428 37.5938 61.8195 37.6171 61.8195 37.6638V40.5758C61.8195 40.6225 61.8428 40.6458 61.8895 40.6458H63.3595ZM70.5186 46.1338C69.9026 46.1338 69.3566 46.0078 68.8806 45.7558C68.4139 45.5038 68.0499 45.1491 67.7886 44.6918C67.5366 44.2251 67.4106 43.6885 67.4106 43.0818V39.1338C67.4106 38.5365 67.5366 38.0091 67.7886 37.5518C68.0499 37.0851 68.4139 36.7258 68.8806 36.4738C69.3566 36.2218 69.9026 36.0958 70.5186 36.0958C71.1439 36.0958 71.6899 36.2218 72.1566 36.4738C72.6326 36.7258 73.0013 37.0851 73.2626 37.5518C73.5239 38.0091 73.6546 38.5365 73.6546 39.1338V43.0818C73.6546 43.6885 73.5239 44.2251 73.2626 44.6918C73.0013 45.1491 72.6326 45.5038 72.1566 45.7558C71.6899 46.0078 71.1439 46.1338 70.5186 46.1338ZM70.5186 44.7338C70.9759 44.7338 71.3399 44.5891 71.6106 44.2998C71.8906 44.0011 72.0306 43.6185 72.0306 43.1518V39.0918C72.0306 38.6158 71.8906 38.2331 71.6106 37.9438C71.3399 37.6451 70.9759 37.4958 70.5186 37.4958C70.0706 37.4958 69.7113 37.6451 69.4406 37.9438C69.1699 38.2331 69.0346 38.6158 69.0346 39.0918V43.1518C69.0346 43.6185 69.1699 44.0011 69.4406 44.2998C69.7113 44.5891 70.0706 44.7338 70.5186 44.7338ZM77.9658 46.1198C77.3498 46.1198 76.8085 46.0125 76.3418 45.7978C75.8752 45.5738 75.5112 45.2611 75.2498 44.8598C74.9978 44.4491 74.8718 43.9778 74.8718 43.4458V43.0818C74.8718 43.0351 74.8858 42.9978 74.9138 42.9698C74.9512 42.9325 74.9932 42.9138 75.0398 42.9138H76.2998C76.3465 42.9138 76.3838 42.9325 76.4118 42.9698C76.4492 42.9978 76.4678 43.0351 76.4678 43.0818V43.3618C76.4678 43.7631 76.6078 44.0898 76.8878 44.3418C77.1678 44.5938 77.5458 44.7198 78.0218 44.7198C78.4605 44.7198 78.7965 44.6078 79.0298 44.3838C79.2632 44.1598 79.3798 43.8658 79.3798 43.5018C79.3798 43.2498 79.3145 43.0351 79.1838 42.8578C79.0532 42.6711 78.8665 42.5031 78.6238 42.3538C78.3905 42.1951 78.0265 41.9851 77.5318 41.7238C76.9625 41.4251 76.5052 41.1591 76.1598 40.9258C75.8145 40.6925 75.5205 40.3938 75.2778 40.0298C75.0445 39.6658 74.9278 39.2225 74.9278 38.6998C74.9278 37.8971 75.1938 37.2625 75.7258 36.7958C76.2672 36.3291 76.9765 36.0958 77.8538 36.0958C78.4605 36.0958 78.9972 36.2125 79.4638 36.4458C79.9305 36.6698 80.2898 36.9918 80.5418 37.4118C80.7938 37.8318 80.9198 38.3125 80.9198 38.8538V39.1478C80.9198 39.1945 80.9012 39.2365 80.8638 39.2738C80.8358 39.3018 80.7985 39.3158 80.7518 39.3158H79.4918C79.4452 39.3158 79.4032 39.3018 79.3658 39.2738C79.3378 39.2365 79.3238 39.1945 79.3238 39.1478V38.8818C79.3238 38.4805 79.1885 38.1491 78.9178 37.8878C78.6472 37.6265 78.2832 37.4958 77.8258 37.4958C77.4245 37.4958 77.1072 37.6031 76.8738 37.8178C76.6405 38.0231 76.5238 38.3125 76.5238 38.6858C76.5238 38.9378 76.5845 39.1525 76.7058 39.3298C76.8272 39.5071 77.0092 39.6751 77.2518 39.8338C77.5038 39.9925 77.8818 40.1978 78.3858 40.4498C79.0578 40.8325 79.5525 41.1311 79.8698 41.3458C80.1872 41.5605 80.4532 41.8405 80.6678 42.1858C80.8918 42.5218 81.0038 42.9371 81.0038 43.4318C81.0038 44.2531 80.7285 44.9065 80.1778 45.3918C79.6272 45.8771 78.8898 46.1198 77.9658 46.1198ZM82.5816 46.0078C82.5349 46.0078 82.4929 45.9938 82.4556 45.9658C82.4276 45.9285 82.4136 45.8865 82.4136 45.8398V36.3758C82.4136 36.3291 82.4276 36.2918 82.4556 36.2638C82.4929 36.2265 82.5349 36.2078 82.5816 36.2078H83.8696C83.9162 36.2078 83.9536 36.2265 83.9816 36.2638C84.0189 36.2918 84.0376 36.3291 84.0376 36.3758V45.8398C84.0376 45.8865 84.0189 45.9285 83.9816 45.9658C83.9536 45.9938 83.9162 46.0078 83.8696 46.0078H82.5816ZM91.5439 36.2078C91.5905 36.2078 91.6279 36.2265 91.6559 36.2638C91.6932 36.2918 91.7119 36.3291 91.7119 36.3758V37.4538C91.7119 37.5005 91.6932 37.5425 91.6559 37.5798C91.6279 37.6078 91.5905 37.6218 91.5439 37.6218H89.3739C89.3272 37.6218 89.3039 37.6451 89.3039 37.6918V45.8398C89.3039 45.8865 89.2852 45.9285 89.2479 45.9658C89.2199 45.9938 89.1825 46.0078 89.1359 46.0078H87.8479C87.8012 46.0078 87.7592 45.9938 87.7219 45.9658C87.6939 45.9285 87.6799 45.8865 87.6799 45.8398V37.6918C87.6799 37.6451 87.6565 37.6218 87.6099 37.6218H85.5239C85.4772 37.6218 85.4352 37.6078 85.3979 37.5798C85.3699 37.5425 85.3559 37.5005 85.3559 37.4538V36.3758C85.3559 36.3291 85.3699 36.2918 85.3979 36.2638C85.4352 36.2265 85.4772 36.2078 85.5239 36.2078H91.5439ZM93.2046 46.0078C93.158 46.0078 93.116 45.9938 93.0786 45.9658C93.0506 45.9285 93.0366 45.8865 93.0366 45.8398V36.3758C93.0366 36.3291 93.0506 36.2918 93.0786 36.2638C93.116 36.2265 93.158 36.2078 93.2046 36.2078H94.4926C94.5393 36.2078 94.5766 36.2265 94.6046 36.2638C94.642 36.2918 94.6606 36.3291 94.6606 36.3758V45.8398C94.6606 45.8865 94.642 45.9285 94.6046 45.9658C94.5766 45.9938 94.5393 46.0078 94.4926 46.0078H93.2046ZM99.3389 46.1338C98.7229 46.1338 98.1769 46.0078 97.7009 45.7558C97.2343 45.5038 96.8703 45.1491 96.6089 44.6918C96.3569 44.2251 96.2309 43.6885 96.2309 43.0818V39.1338C96.2309 38.5365 96.3569 38.0091 96.6089 37.5518C96.8703 37.0851 97.2343 36.7258 97.7009 36.4738C98.1769 36.2218 98.7229 36.0958 99.3389 36.0958C99.9643 36.0958 100.51 36.2218 100.977 36.4738C101.453 36.7258 101.822 37.0851 102.083 37.5518C102.344 38.0091 102.475 38.5365 102.475 39.1338V43.0818C102.475 43.6885 102.344 44.2251 102.083 44.6918C101.822 45.1491 101.453 45.5038 100.977 45.7558C100.51 46.0078 99.9643 46.1338 99.3389 46.1338ZM99.3389 44.7338C99.7963 44.7338 100.16 44.5891 100.431 44.2998C100.711 44.0011 100.851 43.6185 100.851 43.1518V39.0918C100.851 38.6158 100.711 38.2331 100.431 37.9438C100.16 37.6451 99.7963 37.4958 99.3389 37.4958C98.8909 37.4958 98.5316 37.6451 98.2609 37.9438C97.9903 38.2331 97.8549 38.6158 97.8549 39.0918V43.1518C97.8549 43.6185 97.9903 44.0011 98.2609 44.2998C98.5316 44.5891 98.8909 44.7338 99.3389 44.7338ZM108.886 36.3758C108.886 36.3291 108.9 36.2918 108.928 36.2638C108.965 36.2265 109.007 36.2078 109.054 36.2078H110.342C110.389 36.2078 110.426 36.2265 110.454 36.2638C110.491 36.2918 110.51 36.3291 110.51 36.3758V45.8398C110.51 45.8865 110.491 45.9285 110.454 45.9658C110.426 45.9938 110.389 46.0078 110.342 46.0078H108.984C108.9 46.0078 108.835 45.9658 108.788 45.8818L105.736 39.6098C105.717 39.5818 105.699 39.5725 105.68 39.5818C105.661 39.5818 105.652 39.6005 105.652 39.6378L105.666 45.8398C105.666 45.8865 105.647 45.9285 105.61 45.9658C105.582 45.9938 105.545 46.0078 105.498 46.0078H104.21C104.163 46.0078 104.121 45.9938 104.084 45.9658C104.056 45.9285 104.042 45.8865 104.042 45.8398V36.3758C104.042 36.3291 104.056 36.2918 104.084 36.2638C104.121 36.2265 104.163 36.2078 104.21 36.2078H105.554C105.647 36.2078 105.713 36.2498 105.75 36.3338L108.816 42.6338C108.835 42.6618 108.853 42.6758 108.872 42.6758C108.891 42.6665 108.9 42.6431 108.9 42.6058L108.886 36.3758ZM115.017 46.1198C114.401 46.1198 113.859 46.0125 113.393 45.7978C112.926 45.5738 112.562 45.2611 112.301 44.8598C112.049 44.4491 111.923 43.9778 111.923 43.4458V43.0818C111.923 43.0351 111.937 42.9978 111.965 42.9698C112.002 42.9325 112.044 42.9138 112.091 42.9138H113.351C113.397 42.9138 113.435 42.9325 113.463 42.9698C113.5 42.9978 113.519 43.0351 113.519 43.0818V43.3618C113.519 43.7631 113.659 44.0898 113.939 44.3418C114.219 44.5938 114.597 44.7198 115.073 44.7198C115.511 44.7198 115.847 44.6078 116.081 44.3838C116.314 44.1598 116.431 43.8658 116.431 43.5018C116.431 43.2498 116.365 43.0351 116.235 42.8578C116.104 42.6711 115.917 42.5031 115.675 42.3538C115.441 42.1951 115.077 41.9851 114.583 41.7238C114.013 41.4251 113.556 41.1591 113.211 40.9258C112.865 40.6925 112.571 40.3938 112.329 40.0298C112.095 39.6658 111.979 39.2225 111.979 38.6998C111.979 37.8971 112.245 37.2625 112.777 36.7958C113.318 36.3291 114.027 36.0958 114.905 36.0958C115.511 36.0958 116.048 36.2125 116.515 36.4458C116.981 36.6698 117.341 36.9918 117.593 37.4118C117.845 37.8318 117.971 38.3125 117.971 38.8538V39.1478C117.971 39.1945 117.952 39.2365 117.915 39.2738C117.887 39.3018 117.849 39.3158 117.803 39.3158H116.543C116.496 39.3158 116.454 39.3018 116.417 39.2738C116.389 39.2365 116.375 39.1945 116.375 39.1478V38.8818C116.375 38.4805 116.239 38.1491 115.969 37.8878C115.698 37.6265 115.334 37.4958 114.877 37.4958C114.475 37.4958 114.158 37.6031 113.925 37.8178C113.691 38.0231 113.575 38.3125 113.575 38.6858C113.575 38.9378 113.635 39.1525 113.757 39.3298C113.878 39.5071 114.06 39.6751 114.303 39.8338C114.555 39.9925 114.933 40.1978 115.437 40.4498C116.109 40.8325 116.603 41.1311 116.921 41.3458C117.238 41.5605 117.504 41.8405 117.719 42.1858C117.943 42.5218 118.055 42.9371 118.055 43.4318C118.055 44.2531 117.779 44.9065 117.229 45.3918C116.678 45.8771 115.941 46.1198 115.017 46.1198Z" fill="#E0ECFF"/>
</svg>
